<svg width="2947" height="2684" viewBox="0 0 2947 2684" fill="none" xmlns="http://www.w3.org/2000/svg">
<rect width="2947" height="2684" rx="637" fill="white"/>
<path d="M1547.53 947.743C1526.68 1024.94 1531.96 1133.69 1538.81 1204.15C1542.84 1245.55 1576.63 1276.58 1618.22 1277.67C1738.24 1280.82 1981.22 1277.2 2108.52 1205.26C2251.44 1124.48 2366.66 1017 2366.66 809.858C2366.66 635.816 2324.7 541.103 2155.11 501.976C1896.06 442.205 1616.88 691.084 1547.53 947.743Z" fill="#00BFFF"/>
<path d="M1860.45 1389.73C1779.97 1385.38 1690.69 1403.49 1633.83 1418.11C1598.12 1427.29 1573.99 1459.13 1574.34 1495.99C1575.26 1596.04 1587.95 1788.35 1669.68 1831.09C1757.26 1876.91 1877.45 1892.81 1966.23 1849.35C2075.42 1795.9 2148.41 1702.77 2127.41 1583.03C2105.17 1456.25 1988.97 1396.69 1860.45 1389.73Z" fill="#00BFFF"/>
<path d="M1356.13 947.904C1376.99 1025.1 1371.71 1133.85 1364.85 1204.31C1360.83 1245.72 1327.03 1276.74 1285.44 1277.83C1165.42 1280.98 922.444 1277.36 795.143 1205.42C652.22 1124.65 537 1017.16 537 810.018C537 635.977 578.965 541.264 748.551 502.137C1007.61 442.366 1286.78 691.245 1356.13 947.904Z" fill="#00BFFF"/>
<path d="M1043.21 1389.89C1123.69 1385.54 1212.97 1403.66 1269.84 1418.27C1305.54 1427.45 1329.67 1459.29 1329.33 1496.15C1328.4 1596.2 1315.71 1788.51 1233.99 1831.25C1146.4 1877.07 1026.22 1892.97 937.439 1849.51C828.248 1796.06 755.249 1702.93 776.257 1583.19C798.499 1456.41 914.69 1396.85 1043.21 1389.89Z" fill="#00BFFF"/>
<circle cx="1445.54" cy="2027.53" r="129.071" fill="#00BFFF"/>
<path d="M1591.61 983.002C1570.75 1060.2 1576.03 1168.95 1582.88 1239.41C1586.91 1280.81 1620.71 1311.84 1662.29 1312.93C1782.32 1316.08 2025.29 1312.46 2152.6 1240.51C2295.52 1159.74 2410.74 1052.26 2410.74 845.116C2410.74 671.074 2368.77 576.362 2199.19 537.234C1940.13 477.463 1660.95 726.342 1591.61 983.002Z" fill="#FF0004"/>
<path d="M1904.52 1424.99C1824.05 1420.64 1734.77 1438.75 1677.9 1453.37C1642.19 1462.54 1618.07 1494.38 1618.41 1531.25C1619.34 1631.3 1632.02 1823.6 1713.75 1866.35C1801.34 1912.17 1921.52 1928.07 2010.3 1884.61C2119.49 1831.16 2192.49 1738.03 2171.48 1618.28C2149.24 1491.51 2033.05 1431.95 1904.52 1424.99Z" fill="#FF0004"/>
<path d="M1400.2 983.163C1421.06 1060.36 1415.78 1169.11 1408.93 1239.57C1404.9 1280.97 1371.11 1312 1329.52 1313.09C1209.5 1316.24 966.518 1312.62 839.217 1240.68C696.294 1159.9 581.074 1052.42 581.074 845.277C581.074 671.235 623.039 576.523 792.625 537.395C1051.68 477.624 1330.86 726.503 1400.2 983.163Z" fill="#FF0004"/>
<path d="M1087.29 1425.15C1167.77 1420.8 1257.04 1438.91 1313.91 1453.53C1349.62 1462.71 1373.74 1494.54 1373.4 1531.41C1372.47 1631.46 1359.79 1823.77 1278.06 1866.51C1190.48 1912.33 1070.29 1928.23 981.513 1884.77C872.322 1831.32 799.324 1738.19 820.331 1618.44C842.573 1491.67 958.765 1432.11 1087.29 1425.15Z" fill="#FF0004"/>
<circle cx="1489.61" cy="2062.79" r="129.071" fill="#FF0004"/>
<path d="M1571.46 957.817C1550.6 1035.01 1555.88 1143.77 1562.74 1214.22C1566.76 1255.63 1600.56 1286.66 1642.15 1287.75C1762.17 1290.89 2005.15 1287.27 2132.45 1215.33C2275.37 1134.56 2390.59 1027.07 2390.59 819.931C2390.59 645.89 2348.62 551.177 2179.04 512.049C1919.98 452.278 1640.81 701.158 1571.46 957.817Z" fill="black" stroke="black"/>
<path d="M1884.38 1399.81C1803.9 1395.45 1714.62 1413.57 1657.75 1428.18C1622.05 1437.36 1597.92 1469.2 1598.26 1506.06C1599.19 1606.11 1611.88 1798.42 1693.6 1841.17C1781.19 1886.98 1901.37 1902.88 1990.15 1859.43C2099.34 1805.98 2172.34 1712.84 2151.33 1593.1C2129.09 1466.32 2012.9 1406.77 1884.38 1399.81Z" fill="black" stroke="black"/>
<path d="M1380.06 957.978C1400.91 1035.17 1395.63 1143.93 1388.78 1214.38C1384.75 1255.79 1350.96 1286.82 1309.37 1287.91C1189.35 1291.05 946.37 1287.43 819.069 1215.49C676.146 1134.72 560.926 1027.24 560.926 820.092C560.926 646.051 602.891 551.338 772.477 512.21C1031.53 452.439 1310.71 701.319 1380.06 957.978Z" fill="black" stroke="black"/>
<path d="M1067.14 1399.97C1147.62 1395.61 1236.9 1413.73 1293.76 1428.34C1329.47 1437.52 1353.6 1469.36 1353.25 1506.22C1352.33 1606.27 1339.64 1798.58 1257.91 1841.33C1170.33 1887.14 1050.14 1903.05 961.365 1859.59C852.174 1806.14 779.175 1713 800.183 1593.26C822.425 1466.48 938.616 1406.93 1067.14 1399.97Z" fill="black" stroke="black"/>
<circle cx="1469.46" cy="2037.61" r="129.071" fill="black"/>
</svg>
