<svg width="1455" height="1322" viewBox="0 0 1455 1322" fill="none" xmlns="http://www.w3.org/2000/svg">
<path d="M803.5 362C788.31 418.222 790.578 495.525 795.256 551.112C798.745 592.568 832.658 623.589 874.254 624.33C973.55 626.098 1152.84 620.846 1249 566.5C1362.5 502.356 1454 417 1454 252.5C1454 114.287 1420.67 39.073 1286 8.00018C1080.27 -39.4661 858.571 158.178 803.5 362Z" fill="black" stroke="black"/>
<path d="M1052 713C993.598 709.839 929.363 721.58 884.262 732.484C848.429 741.147 824.207 773.127 824.975 809.985C826.682 891.99 838.881 1031.27 900.497 1063.5C970.052 1099.88 1065.5 1112.51 1136 1078C1222.71 1035.55 1280.68 961.592 1264 866.5C1246.34 765.823 1154.06 718.526 1052 713Z" fill="black" stroke="black"/>
<path d="M651.5 362.128C666.69 418.35 664.422 495.653 659.744 551.24C656.255 592.696 622.342 623.717 580.746 624.458C481.45 626.226 302.164 620.974 206 566.628C92.5 502.484 0.999878 417.128 0.999878 252.628C0.999878 114.415 34.3256 39.2007 169 8.12786C374.726 -39.3384 596.429 158.305 651.5 362.128Z" fill="black" stroke="black"/>
<path d="M403.002 713.128C461.402 709.966 525.637 721.708 570.738 732.611C606.571 741.275 630.793 773.255 630.025 810.112C628.318 892.118 616.119 1031.4 554.503 1063.63C484.948 1100.01 389.504 1112.64 319.002 1078.13C232.29 1035.68 174.319 961.72 191.002 866.628C208.665 765.951 300.937 718.653 403.002 713.128Z" fill="black" stroke="black"/>
<circle cx="722.5" cy="1219.5" r="102.5" fill="black"/>
</svg>
