<svg width="1488" height="1350" viewBox="0 0 1488 1350" fill="none" xmlns="http://www.w3.org/2000/svg">
<path d="M802.5 362C787.31 418.222 789.578 495.525 794.256 551.112C797.745 592.568 831.658 623.589 873.254 624.33C972.55 626.098 1151.84 620.846 1248 566.5C1361.5 502.356 1453 417 1453 252.5C1453 114.287 1419.67 39.073 1285 8.00018C1079.27 -39.4661 857.571 158.178 802.5 362Z" fill="#00BFFF"/>
<path d="M1051 713C992.598 709.839 928.363 721.58 883.262 732.484C847.429 741.147 823.207 773.127 823.975 809.985C825.682 891.99 837.881 1031.27 899.497 1063.5C969.052 1099.88 1064.5 1112.51 1135 1078C1221.71 1035.55 1279.68 961.592 1263 866.5C1245.34 765.823 1153.06 718.526 1051 713Z" fill="#00BFFF"/>
<path d="M650.5 362.128C665.69 418.35 663.422 495.653 658.744 551.24C655.255 592.696 621.342 623.717 579.746 624.458C480.45 626.226 301.164 620.974 205 566.628C91.5 502.484 -0.00012207 417.128 -0.00012207 252.628C-0.00012207 114.415 33.3256 39.2007 168 8.12786C373.726 -39.3384 595.429 158.305 650.5 362.128Z" fill="#00BFFF"/>
<path d="M402.002 713.128C460.402 709.966 524.637 721.708 569.738 732.611C605.571 741.275 629.793 773.255 629.025 810.112C627.318 892.118 615.119 1031.4 553.503 1063.63C483.948 1100.01 388.504 1112.64 318.002 1078.13C231.29 1035.68 173.319 961.72 190.002 866.628C207.665 765.951 299.937 718.653 402.002 713.128Z" fill="#00BFFF"/>
<circle cx="721.5" cy="1219.5" r="102.5" fill="#00BFFF"/>
<path d="M837.5 390C822.31 446.222 824.578 523.525 829.256 579.112C832.745 620.568 866.658 651.589 908.254 652.33C1007.55 654.098 1186.84 648.846 1283 594.5C1396.5 530.356 1488 445 1488 280.5C1488 142.287 1454.67 67.073 1320 36.0002C1114.27 -11.4661 892.571 186.178 837.5 390Z" fill="#FF0004"/>
<path d="M1086 741C1027.6 737.839 963.363 749.58 918.262 760.484C882.429 769.147 858.207 801.127 858.975 837.985C860.682 919.99 872.881 1059.27 934.497 1091.5C1004.05 1127.88 1099.5 1140.51 1170 1106C1256.71 1063.55 1314.68 989.592 1298 894.5C1280.34 793.823 1188.06 746.526 1086 741Z" fill="#FF0004"/>
<path d="M685.5 390.128C700.69 446.35 698.422 523.653 693.744 579.24C690.255 620.696 656.342 651.717 614.746 652.458C515.45 654.226 336.164 648.974 240 594.628C126.5 530.484 34.9999 445.128 34.9999 280.628C34.9999 142.415 68.3256 67.2007 203 36.1279C408.726 -11.3384 630.429 186.305 685.5 390.128Z" fill="#FF0004"/>
<path d="M437.002 741.128C495.402 737.966 559.637 749.708 604.738 760.611C640.571 769.275 664.793 801.255 664.025 838.112C662.318 920.118 650.119 1059.4 588.503 1091.63C518.948 1128.01 423.504 1140.64 353.002 1106.13C266.29 1063.68 208.319 989.72 225.002 894.628C242.665 793.951 334.937 746.653 437.002 741.128Z" fill="#FF0004"/>
<circle cx="756.5" cy="1247.5" r="102.5" fill="#FF0004"/>
<path d="M821.5 370C806.31 426.222 808.578 503.525 813.256 559.112C816.745 600.568 850.658 631.589 892.254 632.33C991.55 634.098 1170.84 628.846 1267 574.5C1380.5 510.356 1472 425 1472 260.5C1472 122.287 1438.67 47.073 1304 16.0002C1098.27 -31.4661 876.571 166.178 821.5 370Z" fill="black" stroke="black"/>
<path d="M1070 721C1011.6 717.839 947.363 729.58 902.262 740.484C866.429 749.147 842.207 781.127 842.975 817.985C844.682 899.99 856.881 1039.27 918.497 1071.5C988.052 1107.88 1083.5 1120.51 1154 1086C1240.71 1043.55 1298.68 969.592 1282 874.5C1264.34 773.823 1172.06 726.526 1070 721Z" fill="black" stroke="black"/>
<path d="M669.5 370.128C684.69 426.35 682.422 503.653 677.744 559.24C674.255 600.696 640.342 631.717 598.746 632.458C499.45 634.226 320.164 628.974 224 574.628C110.5 510.484 18.9999 425.128 18.9999 260.628C18.9999 122.415 52.3256 47.2007 187 16.1279C392.726 -31.3384 614.429 166.305 669.5 370.128Z" fill="black" stroke="black"/>
<path d="M421.002 721.128C479.402 717.966 543.637 729.708 588.738 740.611C624.571 749.275 648.793 781.255 648.025 818.112C646.318 900.118 634.119 1039.4 572.503 1071.63C502.948 1108.01 407.504 1120.64 337.002 1086.13C250.29 1043.68 192.319 969.72 209.002 874.628C226.665 773.951 318.937 726.653 421.002 721.128Z" fill="black" stroke="black"/>
<circle cx="740.5" cy="1227.5" r="102.5" fill="black"/>
</svg>
