<svg width="486" height="160" viewBox="0 0 486 160" fill="none" xmlns="http://www.w3.org/2000/svg">
<path d="M26.8 159C0.6 159 4.76837e-07 139 4.76837e-07 110V56C4.76837e-07 11 9.4 0.999993 30.8 0.999993C46.6 0.999993 55.4 13.4 67.4 32.2L114.8 106.4C119.6 114 122.4 116.8 126 116.8C131 116.8 133.4 114.6 133.4 110.2C133.4 106.6 131.8 102 129.2 95.4L110.8 48C105.8 35.2 106.2 28.8 106.2 24C106.2 13.8 111.4 0.799995 128.2 0.799995C148 0.799995 154 20 152 38.4L141.8 131C139.6 150.2 133 159 120 159C107.8 159 101.6 150.4 87.4 130.8L54.2 84.8C46.2 73.8 37.8 56 40.4 39.4L42.2 28C43.8 17.8 37.6 12.6 30.4 12.6C19.2 12.6 12.6 21 12.6 32.4C12.6 38 14.4 47 16.2 51.4L43.4 118C52.4 140.2 48.4 159 26.8 159ZM241.167 28.2C245.167 16.8 243.167 12.2 237.767 12.2C235.967 12.2 233.767 13.2 231.767 15.4L209.367 40.4C190.967 60.8 161.367 49.2 161.367 26.2C161.367 16 167.967 3.99999 188.767 3.99999H257.167C293.367 3.99999 315.367 24 315.367 51.8C315.367 64.2 305.767 75.2 292.967 75.6C274.767 76.2 268.967 63 268.967 35.4V26.6C268.967 17.8 266.967 11.2 260.167 11.2C254.767 11.2 252.567 16.4 252.367 29L250.167 126.8C249.767 148 245.767 159 226.567 159C205.167 159 200.767 143.6 208.967 121.8L241.167 28.2ZM455.897 0.999993C482.097 0.999993 485.297 20.8 483.897 49.8L481.697 98.6C479.697 143.4 474.897 159.2 451.697 159.2C437.497 159.2 427.897 148 415.297 129.6L362.897 53.6C357.697 46 355.297 43.2 351.697 43.2C346.697 43.2 344.297 45.4 344.297 49.8C344.297 53.4 345.097 58.6 348.497 64.6L374.897 112C381.497 124 379.497 131.2 379.497 136C379.497 146.2 374.297 159.2 357.497 159.2C337.697 159.2 333.297 140 333.697 121.6L335.897 29C336.297 9.8 344.697 0.999993 357.697 0.999993C369.897 0.999993 375.697 10 390.297 29.2L427.497 78.4C435.697 89.2 444.297 105.6 441.697 122.2L439.897 133.6C438.297 143.8 444.497 149 451.697 149C462.897 149 468.097 140.6 468.097 129.2C468.097 123.6 465.897 114.6 464.497 110.2L441.897 42C434.497 19.6 434.297 0.999993 455.897 0.999993Z" fill="black"/>
</svg>
